<svg width="170" height="113" viewBox="0 0 170 113" fill="none" xmlns="http://www.w3.org/2000/svg">
<g clip-path="url(#clip0_11131_5063)">
<path d="M99.096 44.2383C98.712 44.2383 98.381 44.5086 98.3044 44.8849C98.2024 45.3856 98.5851 45.854 99.096 45.854H162.011C165.176 45.854 167.544 48.7562 166.91 51.8563L155.548 107.387C155.072 109.714 153.025 111.385 150.649 111.385H7.98935C4.82492 111.385 2.45633 108.482 3.09092 105.382L13.9006 52.5736C13.9959 52.108 13.6401 51.6721 13.1649 51.6721C12.8082 51.6721 12.5007 51.923 12.4292 52.2725L1.22865 106.997C0.594151 110.097 2.96272 113 6.12711 113H151.853C154.229 113 156.276 111.329 156.752 109.002L168.772 50.2403C169.406 47.1404 167.038 44.2383 163.874 44.2383H99.096Z" fill="#193C71"/>
<path d="M21.5272 48.7729C19.1522 48.7729 17.105 50.4436 16.6287 52.7703L6.45724 102.462C5.82267 105.562 8.19124 108.465 11.3557 108.465H148.473C150.848 108.465 152.895 106.794 153.372 104.468L163.543 54.7756C164.178 51.6755 161.809 48.7729 158.645 48.7729H21.5272Z" fill="#193C71"/>
<path d="M18.8401 4.53467C16.4576 4.53467 14.406 6.21575 13.9376 8.55178L6.49195 45.6894C5.87152 48.784 8.2382 51.6723 11.3944 51.6723H143.476C145.859 51.6723 147.911 49.9912 148.379 47.6552L155.825 10.5175C156.445 7.42294 154.078 4.53467 150.922 4.53467H18.8401Z" fill="#E02E2E"/>
<path d="M16.0644 55.5609C16.1663 55.0605 15.7839 54.5923 15.2732 54.5923H8.0304C4.87351 54.5923 2.50666 51.7028 3.12829 48.6077L11.76 5.63027C12.229 3.29502 14.2802 1.61482 16.6621 1.61482H154.288C157.445 1.61482 159.811 4.50312 159.191 7.59774L151.116 47.874C151.022 48.3391 151.378 48.7733 151.853 48.7733C152.211 48.7733 152.519 48.5207 152.589 48.1695L161.052 5.98343C161.673 2.88867 159.306 0 156.15 0H15.4574C13.0758 0 11.0248 1.67978 10.5555 4.01466L1.26735 50.2218C0.645167 53.3171 3.01209 56.2071 6.1693 56.2071H15.2732C15.657 56.2071 15.9877 55.937 16.0644 55.5609Z" fill="#E02E2E"/>
<path opacity="0.4" d="M147.574 51.6725H16.8564L16.2635 54.5815H149.81L150.993 48.7734H148.164L147.574 51.6725Z" fill="#193C71"/>
<path d="M40.4464 70.3381L35.7432 96.8419H27.3457L31.9892 70.3381H25.0425L26.3514 62.7881H48.7453L47.3922 70.3381H40.4455H40.4464Z" fill="white"/>
<path d="M69.6557 70.3382H59.6031L58.5609 76.0491H68.0386L66.652 83.5465H57.1933L56.1257 89.3972H66.1286L64.7501 96.8419H46.3696L52.5082 62.7891H71.055L69.6575 70.3391L69.6557 70.3382Z" fill="white"/>
<path d="M91.7116 90.9694H79.6966L76.6594 96.8419H67.705L86.4435 62.7891H95.6952L101.467 96.8419H92.5124L91.7116 90.9694ZM90.7633 84.2676L89.1399 72.9239L83.1975 84.2676H90.7633Z" fill="white"/>
<path d="M103.694 96.8419L115.884 62.7891H124.27L127.137 81.0207L137.283 62.7891H145.67L144.182 96.8419H135.827L137.01 77.3161L125.415 96.8419H122.074L118.707 77.3161L112.048 96.8419H103.693H103.694Z" fill="white"/>
<path d="M29.2268 18.227L26.8513 31.2999C26.7518 31.8494 26.6316 32.3571 26.4924 32.8221C26.3532 33.288 26.1905 33.6867 26.0052 34.0191C25.7051 34.5514 25.3399 35.0382 24.9087 35.4787C24.4776 35.9191 23.9994 36.2933 23.476 36.6003C22.9517 36.9082 22.3886 37.1489 21.7875 37.3232C21.1854 37.4976 20.5726 37.5848 19.9489 37.5848C18.0597 37.5848 16.6893 36.6621 15.836 34.8175L19.4255 31.5488C19.4011 32.1146 19.4915 32.5642 19.6967 32.8966C19.9019 33.2299 20.1993 33.3952 20.5907 33.3952C21.4494 33.3952 22.0098 32.6713 22.2729 31.2245L24.6285 18.2261H29.2277L29.2268 18.227Z" fill="white"/>
<path d="M30.4435 27.6534C30.6984 26.2547 31.1775 24.9505 31.8825 23.7426C32.5867 22.5338 33.4518 21.4793 34.4759 20.5783C35.5001 19.6774 36.6571 18.9726 37.947 18.464C39.2369 17.9554 40.6009 17.7002 42.04 17.7002C43.479 17.7002 44.731 17.9545 45.8419 18.464C46.9528 18.9735 47.8595 19.6783 48.5618 20.5783C49.2642 21.4793 49.746 22.5338 50.0081 23.7426C50.2703 24.9514 50.2721 26.2547 50.0144 27.6534C49.7568 29.0521 49.2741 30.3544 48.5682 31.5615C47.8622 32.7676 46.9926 33.8193 45.9612 34.7175C44.9299 35.6158 43.7665 36.3178 42.4712 36.8246C41.1758 37.3314 39.8181 37.5848 38.3981 37.5848C36.978 37.5848 35.6935 37.3314 34.5916 36.8246C33.4897 36.3178 32.5912 35.6158 31.897 34.7175C31.2019 33.8193 30.7219 32.7676 30.458 31.5615C30.1931 30.3554 30.1886 29.0521 30.4435 27.6534ZM35.2479 27.6534C35.1114 28.4027 35.1177 29.0938 35.2678 29.726C35.4178 30.359 35.6763 30.9076 36.0442 31.3735C36.4121 31.8394 36.8731 32.2018 37.4272 32.4588C37.9814 32.7167 38.5942 32.8457 39.2658 32.8457C39.9375 32.8457 40.5973 32.7167 41.2463 32.4588C41.8945 32.2009 42.492 31.8394 43.0388 31.3735C43.5848 30.9076 44.0485 30.359 44.4309 29.726C44.8123 29.0938 45.0727 28.4027 45.2101 27.6534C45.3475 26.9041 45.342 26.213 45.192 25.5799C45.0419 24.9469 44.7798 24.3974 44.4047 23.9306C44.0286 23.4638 43.564 23.1014 43.0099 22.8425C42.4549 22.5846 41.842 22.4547 41.1695 22.4547C40.497 22.4547 39.8362 22.5837 39.1872 22.8425C38.5382 23.1014 37.9443 23.4638 37.4056 23.9306C36.8668 24.3974 36.4067 24.9469 36.0253 25.5799C35.6438 26.213 35.3853 26.9041 35.2479 27.6534Z" fill="white"/>
<path d="M59.2599 18.2271L55.7753 37.0617H51.186L54.6616 18.2271H59.2608H59.2599Z" fill="white"/>
<path d="M59.474 37.0617L62.9659 18.2271H67.5651L73.9052 29.7524L76.0584 18.2271H80.6341L77.1052 37.0617H72.5394L66.202 25.5555L64.0624 37.0617H59.4731H59.474Z" fill="white"/>
<path d="M89.7439 27.6534C90.0078 26.2547 90.4959 24.9505 91.2082 23.7426C91.9205 22.5338 92.7919 21.4793 93.8224 20.5783C94.852 19.6774 96.0144 18.9726 97.307 18.464C98.5997 17.9554 99.9655 17.7002 101.405 17.7002C102.845 17.7002 104.095 17.9545 105.203 18.464C106.31 18.9735 107.212 19.6783 107.909 20.5783C108.605 21.4793 109.081 22.5338 109.336 23.7426C109.59 24.9514 109.583 26.2547 109.317 27.6534C109.05 29.0521 108.559 30.3544 107.845 31.5615C107.131 32.7676 106.255 33.8193 105.217 34.7175C104.18 35.6158 103.012 36.3178 101.714 36.8246C100.415 37.3314 99.0561 37.5848 97.6361 37.5848C96.216 37.5848 94.9333 37.3314 93.835 36.8246C92.7368 36.3178 91.8428 35.6158 91.154 34.7175C90.4643 33.8193 89.9915 32.7676 89.7348 31.5615C89.4781 30.3554 89.4817 29.0521 89.7457 27.6534H89.7439ZM94.5492 27.6534C94.4072 28.4027 94.409 29.0938 94.5555 29.726C94.701 30.359 94.9568 30.9076 95.322 31.3735C95.6863 31.8394 96.1455 32.2018 96.6978 32.4588C97.2501 32.7167 97.8621 32.8457 98.5337 32.8457C99.2053 32.8457 99.8661 32.7167 100.516 32.4588C101.166 32.2009 101.766 31.8394 102.316 31.3735C102.864 30.9076 103.333 30.359 103.719 29.726C104.105 29.0938 104.369 28.4027 104.511 27.6534C104.654 26.9041 104.652 26.213 104.507 25.5799C104.361 24.9469 104.102 24.3974 103.73 23.9306C103.358 23.4638 102.895 23.1014 102.342 22.8425C101.789 22.5846 101.176 22.4547 100.504 22.4547C99.8326 22.4547 99.17 22.5837 98.5192 22.8425C97.8684 23.1014 97.2718 23.4638 96.7303 23.9306C96.188 24.3974 95.7252 24.9469 95.3401 25.5799C94.9541 26.213 94.6911 26.9041 94.5492 27.6534Z" fill="white"/>
<path d="M118.622 18.2271L116.658 28.4781C116.554 29.0276 116.465 29.5898 116.394 30.1638C116.323 30.7378 116.341 31.2582 116.447 31.7241C116.553 32.19 116.789 32.5688 117.155 32.8594C117.521 33.1509 118.086 33.2963 118.851 33.2963C119.617 33.2963 120.234 33.1509 120.703 32.8594C121.173 32.5688 121.554 32.19 121.847 31.7241C122.139 31.2582 122.36 30.7378 122.51 30.1638C122.659 29.5898 122.786 29.0276 122.892 28.4781L124.862 18.2271H129.437L127.332 29.153C126.768 32.082 125.727 34.2199 124.211 35.5659C122.695 36.9128 120.634 37.5858 118.027 37.5858C115.42 37.5858 113.613 36.9128 112.606 35.5659C111.599 34.219 111.375 32.082 111.934 29.153L114.02 18.2271H118.619H118.622Z" fill="white"/>
<path d="M144.19 37.0617H138.476L135.498 29.8269L134.098 37.0617H129.509L133.145 18.2271H140.301C141.287 18.2271 142.117 18.3814 142.793 18.6902C143.468 18.999 143.992 19.4205 144.366 19.9536C144.739 20.4876 144.978 21.1043 145.085 21.8045C145.191 22.5048 145.166 23.255 145.011 24.0551C144.733 25.4883 144.182 26.6508 143.36 27.5409C142.539 28.4318 141.465 29.0358 140.138 29.3519L144.191 37.0617H144.19ZM136.113 26.6544H136.98C137.887 26.6544 138.621 26.4546 139.183 26.055C139.746 25.6554 140.099 25.0805 140.245 24.3303C140.39 23.5801 140.259 23.0052 139.852 22.6047C139.445 22.2042 138.788 22.0043 137.882 22.0043H137.014L136.114 26.6544H136.113Z" fill="white"/>
</g>
<defs>
<clipPath id="clip0_11131_5063">
<rect width="170" height="113" fill="white"/>
</clipPath>
</defs>
</svg>
